<svg preserveAspectRatio="none" width="24" height="22" viewBox="0 0 24 22" fill="none" xmlns="http://www.w3.org/2000/svg">
<path d="M11.558 0C5.174 0 0 5.176 0 11.558C0 12.816 0.201 14.028 0.574 15.155L0.576 15.148C0.707638 14.5399 0.884804 13.9425 1.106 13.361L1.117 13.331C1.202 13.109 1.296 12.889 1.394 12.671L1.478 12.49C1.558 12.319 1.643 12.15 1.731 11.983C1.767 11.915 1.801 11.847 1.839 11.78C1.859 11.742 1.883 11.707 1.903 11.67C1.997 11.504 2.093 11.338 2.193 11.177L2.268 11.063C2.393 10.868 2.524 10.677 2.661 10.49L2.696 10.44C2.84 10.247 2.991 10.06 3.147 9.877L3.247 9.759C3.402 9.582 3.562 9.409 3.728 9.242L3.827 9.145C4.00291 8.97084 4.18503 8.80306 4.373 8.642C5.113 6.162 7.378 4.357 10.059 4.357C11.138 4.357 12.211 4.667 13.13 5.23C14.075 5.81297 14.8402 6.64604 15.341 7.637L15.348 7.652L15.388 7.726V7.729L15.392 7.731C15.9528 8.07731 16.4777 8.47862 16.959 8.929C16.999 8.966 17.04 9 17.079 9.038C17.081 9.038 17.085 9.043 17.086 9.044L17.084 9.038L17.083 9.034V9.031L17.125 8.947C17.502 6.563 18.555 4.845 19.795 4.845C20.729 4.845 21.557 5.82 22.071 7.321L22.076 7.337L22.077 7.339C22.222 7.497 22.364 7.67 22.501 7.86L22.508 7.87L22.529 7.937L22.509 7.859C20.967 3.29 16.646 0.00199997 11.557 0.00199997L11.558 0ZM9.927 4.443C7.586 4.486 5.34 6.098 4.574 8.331L4.562 8.365C4.97622 8.03269 5.41591 7.73344 5.877 7.47C8.683 5.814 12.356 5.824 15.155 7.486C14.26 5.833 12.524 4.667 10.655 4.482C10.4136 4.45179 10.1703 4.43875 9.927 4.443ZM19.761 4.943C19.6284 4.9462 19.497 4.96877 19.371 5.01C18.106 5.572 17.652 7.083 17.34 8.313L17.324 8.385C17.689 7.765 18.132 7.17 18.72 6.743C19.555 6.056 20.825 6.088 21.636 6.796C21.944 7.122 21.777 6.804 21.667 6.576C21.325 5.826 20.642 4.923 19.761 4.942V4.943ZM12.35 7.281L11.28 10.551L11.278 10.556L11.272 10.558L6.774 11.67H6.765L11.221 12.757C11.326 12.867 11.448 12.962 11.581 13.037H11.583C11.625 13.061 11.668 13.082 11.712 13.102L11.722 13.107C11.763 13.125 11.805 13.14 11.848 13.154L11.869 13.162C11.909 13.175 11.949 13.185 11.989 13.194L12.022 13.202C12.1267 13.2231 12.2332 13.2342 12.34 13.235C12.6453 13.2359 12.9441 13.1463 13.1986 12.9776C13.4531 12.8089 13.6519 12.5686 13.77 12.287C13.85 12.101 13.893 11.897 13.893 11.683V11.672L13.892 11.66C13.8912 11.6065 13.8879 11.5531 13.882 11.5L13.881 11.498C13.875 11.4466 13.8663 11.3955 13.855 11.345L13.854 11.341C13.8317 11.242 13.7996 11.1455 13.758 11.053V11.05C13.6757 10.8651 13.5574 10.6986 13.41 10.56V10.557L12.35 7.281ZM15.498 7.907C15.546 8.915 15.534 9.953 15.398 10.964C15.228 12.982 14.208 14.762 13.426 16.58L13.396 16.66L13.361 16.746C14.871 15.224 16.531 13.706 17.33 11.664C17.713 11.028 17.448 10.322 17.215 9.688C17.045 8.811 16.146 8.41 15.498 7.907ZM21.67 8.479L21.082 11.167C21.0625 11.2327 21.0468 11.2995 21.035 11.367C21.033 11.387 21.028 11.407 21.025 11.427C21.015 11.5006 21.0096 11.5747 21.009 11.649L21.007 11.68H21.01C21.01 12.308 21.307 12.816 21.673 12.817C21.7363 12.8163 21.7986 12.8009 21.855 12.772L21.882 12.757C21.9065 12.7432 21.9299 12.7275 21.952 12.71C21.965 12.7 21.976 12.688 21.988 12.677C22.0415 12.6279 22.0877 12.5713 22.125 12.509L22.155 12.455C22.1741 12.4199 22.1914 12.3838 22.207 12.347L22.224 12.307C22.244 12.254 22.262 12.199 22.277 12.141L22.279 12.139L22.28 12.136L22.684 11.685L22.277 11.229V11.23L22.257 11.167L21.67 8.479ZM17.289 9.335C17.979 11.051 18.139 13.042 17.38 14.765C16.89 16.133 15.793 17.228 15.506 18.67C16.236 18.785 16.974 18.846 17.716 18.856C19.882 18.885 22.048 18.436 24 17.491C21.96 14.622 19.879 11.736 17.289 9.335ZM12.341 10.312C12.4956 10.312 12.6439 10.3734 12.7532 10.4828C12.8626 10.5921 12.924 10.7404 12.924 10.895C12.924 11.0496 12.8626 11.1979 12.7532 11.3072C12.6439 11.4166 12.4956 11.478 12.341 11.478C12.1864 11.478 12.0381 11.4166 11.9288 11.3072C11.8194 11.1979 11.758 11.0496 11.758 10.895C11.758 10.7404 11.8194 10.5921 11.9288 10.4828C12.0381 10.3734 12.1864 10.312 12.341 10.312ZM21.693 10.682C21.831 10.682 21.942 10.872 21.942 11.108C21.942 11.344 21.831 11.534 21.693 11.534C21.556 11.534 21.445 11.344 21.445 11.108C21.445 10.873 21.555 10.682 21.693 10.682ZM17.649 10.866C17.6354 10.9632 17.6188 11.0599 17.599 11.156L17.593 11.179C17.583 11.229 17.571 11.273 17.56 11.307C17.08 12.724 16.285 13.827 15.2 15.004C15.053 15.164 14.899 15.324 14.741 15.488C14.3481 15.8954 13.9494 16.2971 13.545 16.693C13.433 16.803 13.286 16.954 13.12 17.129C13.017 17.416 12.9 17.739 12.802 18.079C12.758 18.063 12.716 18.048 12.671 18.03C10.563 17.215 9.152 16.126 9.152 16.126C9.152 16.126 10.238 17.54 12.067 18.866C12.244 18.995 12.418 19.106 12.589 19.205C12.514 20.399 13.041 21.545 15.419 21.887C15.8263 21.9421 16.239 21.9448 16.647 21.895L16.637 21.866C16.636 21.8626 16.6346 21.8592 16.633 21.856C16.633 21.856 16.466 21.723 16.254 21.479C16.0184 21.2087 15.8219 20.9068 15.67 20.582C15.5432 20.3078 15.4538 20.0179 15.404 19.72C15.3521 19.3982 15.3501 19.0704 15.398 18.748C15.415 18.628 15.438 18.507 15.47 18.382C15.563 18.008 15.725 17.61 15.977 17.19L15.979 17.187L16.22 16.783C17.323 14.923 18.017 13.508 17.726 11.342C17.7043 11.1827 17.6793 11.0239 17.649 10.866ZM22.33 11.645L22.333 11.681V11.691C22.333 11.704 22.33 11.716 22.33 11.729C22.33 11.715 22.333 11.701 22.333 11.686C22.333 11.672 22.331 11.66 22.33 11.646V11.645ZM22.318 11.92L22.316 11.931L22.314 11.945L22.318 11.92ZM23.671 17.848C21.118 18.986 18.231 19.288 15.479 18.855C15.339 19.963 15.863 21.073 16.693 21.785L16.705 21.795C19.408 21.362 21.68 19.626 23.671 17.848Z" fill="white"/>
</svg>
