<svg preserveAspectRatio="none" width="17" height="23" viewBox="0 0 17 23" fill="none" xmlns="http://www.w3.org/2000/svg">
<path d="M8.5 4.3125C8.71217 4.3125 8.91566 4.38823 9.06569 4.52302C9.21572 4.65781 9.3 4.84063 9.3 5.03125V7.90625C9.3 8.09687 9.21572 8.27969 9.06569 8.41448C8.91566 8.54927 8.71217 8.625 8.5 8.625C8.28783 8.625 8.08434 8.54927 7.93431 8.41448C7.78429 8.27969 7.7 8.09687 7.7 7.90625V5.03125C7.7 4.84063 7.78429 4.65781 7.93431 4.52302C8.08434 4.38823 8.28783 4.3125 8.5 4.3125ZM14.9 15.8125C14.9 17.3375 14.2257 18.8 13.0255 19.8784C11.8253 20.9567 10.1974 21.5625 8.5 21.5625C6.80261 21.5625 5.17475 20.9567 3.97452 19.8784C2.77428 18.8 2.1 17.3375 2.1 15.8125V7.1875C2.1 5.66251 2.77428 4.19997 3.97452 3.12164C5.17475 2.0433 6.80261 1.4375 8.5 1.4375C10.1974 1.4375 11.8253 2.0433 13.0255 3.12164C14.2257 4.19997 14.9 5.66251 14.9 7.1875V15.8125ZM8.5 0C6.37827 0 4.34344 0.757252 2.84315 2.10517C1.34285 3.45309 0.5 5.28126 0.5 7.1875V15.8125C0.5 17.7187 1.34285 19.5469 2.84315 20.8948C4.34344 22.2427 6.37827 23 8.5 23C10.6217 23 12.6566 22.2427 14.1569 20.8948C15.6571 19.5469 16.5 17.7187 16.5 15.8125V7.1875C16.5 5.28126 15.6571 3.45309 14.1569 2.10517C12.6566 0.757252 10.6217 0 8.5 0Z" fill="white"/>
</svg>
