<svg preserveAspectRatio="none" width="22" height="20" viewBox="0 0 22 20" fill="none" xmlns="http://www.w3.org/2000/svg">
<path d="M18.5001 5.00002C17.6763 3.767 16.5605 2.75666 15.2521 2.05882C13.9436 1.36098 12.483 0.997268 11.0001 1.00002C9.51976 0.99911 8.06209 1.36374 6.75652 2.06154C5.45095 2.75933 4.33787 3.76869 3.51611 5.00002" stroke="white" stroke-width="2" stroke-linecap="round" stroke-linejoin="round"/>
<path d="M10.5001 1C9.72074 2.2486 9.10694 3.5932 8.67411 5M11.5001 1C12.2802 2.2485 12.8947 3.5931 13.3281 5M18.5001 15C17.6763 16.233 16.5605 17.2434 15.2521 17.9412C13.9436 18.639 12.483 19.0027 11.0001 19C9.51976 19.0009 8.06209 18.6363 6.75652 17.9385C5.45095 17.2407 4.33787 16.2313 3.51611 15" stroke="white" stroke-width="2" stroke-linecap="round" stroke-linejoin="round"/>
<path d="M10.5 19C9.72063 17.7514 9.10682 16.4068 8.674 15M11.5 19C12.2801 17.7515 12.8945 16.4069 13.328 15M1 8L2 12L3.5 8L5 12L6 8M16 8L17 12L18.5 8L20 12L21 8M8.5 8L9.5 12L11 8L12.5 12L13.5 8" stroke="white" stroke-width="2" stroke-linecap="round" stroke-linejoin="round"/>
</svg>
