<svg preserveAspectRatio="none" width="567" height="625" viewBox="0 0 567 625" fill="none" xmlns="http://www.w3.org/2000/svg">
<g filter="url(#filter0_f_412_34)">
<path fill-rule="evenodd" clip-rule="evenodd" d="M303.977 327.085L303.994 327.944L304 328.805L303.993 329.665L303.973 330.526L303.94 331.386L303.892 332.246L303.831 333.105L303.754 333.964L303.661 334.82L303.553 335.675L303.428 336.528L303.286 337.378L303.128 338.225L302.951 339.069L302.756 339.908L302.544 340.743L302.312 341.572L302.062 342.396L301.792 343.213L301.504 344.024L301.196 344.827L300.869 345.623L300.523 346.409L300.157 347.187L299.773 347.955L299.369 348.712L298.946 349.459L298.505 350.195L298.045 350.919L297.567 351.63L297.072 352.329L296.559 353.015L296.029 353.687L295.483 354.345L294.921 354.988L294.344 355.617L293.752 356.231L293.146 356.83L292.526 357.413L291.893 357.98L291.247 358.532L290.59 359.067L289.921 359.586L289.242 360.089L288.553 360.575L287.855 361.045L287.149 361.499L286.436 361.937L285.716 362.36L284.99 362.766L284.258 363.157L283.523 363.533L282.784 363.895L282.042 364.242L281.298 364.576L280.553 364.896L279.808 365.204L279.062 365.499L278.317 365.783L277.573 366.055L276.831 366.317L276.091 366.57L275.355 366.813L274.621 367.048L273.891 367.274L273.165 367.494L272.444 367.707L271.727 367.914L271.014 368.116L270.307 368.312L269.604 368.505L268.907 368.694L268.214 368.88L267.526 369.064L266.844 369.245L266.166 369.424L265.493 369.601L264.824 369.777L264.159 369.952L263.498 370.125L262.84 370.297L262.185 370.468L261.534 370.637L260.884 370.804L260.237 370.969L259.591 371.132L258.946 371.292L258.303 371.448L257.66 371.601L257.017 371.749L256.375 371.892L255.732 372.029L255.089 372.16L254.445 372.285L253.801 372.401L253.156 372.509L252.51 372.609L251.863 372.698L251.216 372.777L250.567 372.845L249.919 372.902L249.269 372.946L248.619 372.977L247.97 372.996L247.32 373L246.671 372.99L246.023 372.966L245.376 372.927L244.73 372.873L244.086 372.804L243.444 372.72L242.805 372.62L242.169 372.506L241.537 372.376L240.908 372.232L240.283 372.074L239.663 371.901L239.047 371.715L238.437 371.515L237.832 371.304L237.232 371.079L236.638 370.844L236.05 370.597L235.468 370.34L234.893 370.074L234.324 369.798L233.76 369.515L233.204 369.224L232.653 368.926L232.109 368.622L231.571 368.313L231.038 367.999L230.511 367.681L229.99 367.36L229.474 367.037L228.963 366.711L228.456 366.385L227.954 366.057L227.455 365.73L226.96 365.403L226.468 365.077L225.979 364.752L225.491 364.43L225.006 364.109L224.521 363.79L224.038 363.474L223.555 363.161L223.071 362.851L222.588 362.544L222.103 362.24L221.617 361.939L221.129 361.641L220.638 361.347L220.145 361.056L219.649 360.767L219.149 360.482L218.645 360.2L218.136 359.92L217.623 359.642L217.104 359.367L216.58 359.094L216.05 358.823L215.514 358.553L214.971 358.284L214.422 358.015L213.866 357.746L213.304 357.477L212.734 357.207L212.157 356.936L211.573 356.662L210.982 356.386L210.385 356.107L209.78 355.824L209.169 355.536L208.551 355.244L207.928 354.946L207.298 354.641L206.663 354.33L206.023 354.012L205.379 353.685L204.73 353.35L204.077 353.006L203.422 352.652L202.764 352.287L202.103 351.912L201.442 351.526L200.78 351.128L200.117 350.718L199.455 350.295L198.795 349.86L198.136 349.411L197.48 348.949L196.827 348.474L196.179 347.984L195.535 347.481L194.897 346.963L194.265 346.431L193.64 345.884L193.023 345.323L192.415 344.747L191.816 344.157L191.227 343.552L190.649 342.933L190.082 342.3L189.528 341.652L188.987 340.991L188.459 340.316L187.946 339.627L187.447 338.926L186.964 338.211L186.497 337.484L186.046 336.745L185.612 335.994L185.196 335.232L184.798 334.458L184.418 333.674L184.057 332.881L183.715 332.077L183.393 331.265L183.09 330.444L182.806 329.615L182.543 328.778L182.3 327.935L182.078 327.085L181.876 326.229L181.694 325.367L181.533 324.501L181.394 323.63L181.275 322.756L181.177 321.878L181.101 320.997L181.046 320.114L181.012 319.23L181 318.345L181.009 317.459L181.041 316.573L181.093 315.688L181.167 314.803L181.263 313.921L181.38 313.041L181.519 312.164L181.679 311.29L181.86 310.421L182.062 309.555L182.284 308.695L182.527 307.84L182.791 306.991L183.074 306.149L183.377 305.313L183.7 304.485L184.041 303.665L184.402 302.852L184.78 302.049L185.176 301.254L185.59 300.468L186.021 299.693L186.468 298.926L186.931 298.171L187.409 297.425L187.903 296.69L188.411 295.966L188.933 295.252L189.468 294.55L190.016 293.859L190.576 293.179L191.148 292.51L191.731 291.853L192.325 291.207L192.929 290.572L193.543 289.948L194.165 289.336L194.797 288.734L195.436 288.144L196.083 287.565L196.737 286.996L197.398 286.438L198.066 285.89L198.739 285.353L199.418 284.826L200.101 284.309L200.79 283.801L201.483 283.303L202.18 282.814L202.881 282.334L203.586 281.863L204.294 281.401L205.005 280.946L205.718 280.5L206.434 280.062L207.153 279.631L207.874 279.208L208.597 278.791L209.322 278.382L210.049 277.978L210.778 277.582L211.508 277.191L212.24 276.806L212.973 276.427L213.708 276.053L214.445 275.684L215.183 275.32L215.923 274.96L216.664 274.606L217.407 274.255L218.151 273.909L218.898 273.566L219.646 273.227L220.396 272.892L221.148 272.56L221.902 272.231L222.659 271.906L223.417 271.584L224.179 271.264L224.943 270.948L225.71 270.634L226.48 270.323L227.254 270.015L228.03 269.71L228.811 269.407L229.595 269.108L230.383 268.812L231.176 268.518L231.972 268.229L232.774 267.942L233.58 267.66L234.391 267.381L235.207 267.107L236.029 266.838L236.856 266.573L237.688 266.314L238.526 266.06L239.37 265.813L240.22 265.572L241.076 265.339L241.938 265.113L242.805 264.895L243.679 264.686L244.559 264.486L245.444 264.295L246.336 264.116L247.233 263.947L248.135 263.79L249.043 263.645L249.956 263.513L250.874 263.395L251.797 263.291L252.723 263.201L253.654 263.128L254.588 263.07L255.526 263.029L256.466 263.006L257.408 263L258.352 263.013L259.297 263.045L260.243 263.097L261.188 263.169L262.133 263.262L263.077 263.376L264.019 263.511L264.959 263.668L265.895 263.847L266.827 264.049L267.755 264.273L268.677 264.521L269.593 264.791L270.502 265.084L271.404 265.4L272.298 265.74L273.183 266.102L274.058 266.488L274.923 266.895L275.777 267.326L276.62 267.778L277.451 268.253L278.27 268.748L279.075 269.265L279.867 269.802L280.644 270.36L281.407 270.937L282.155 271.533L282.888 272.148L283.605 272.78L284.306 273.43L284.991 274.097L285.66 274.779L286.312 275.476L286.947 276.188L287.565 276.914L288.167 277.653L288.752 278.403L289.321 279.166L289.872 279.939L290.408 280.721L290.927 281.513L291.43 282.314L291.918 283.121L292.39 283.936L292.847 284.757L293.29 285.584L293.718 286.415L294.133 287.25L294.534 288.089L294.923 288.931L295.3 289.775L295.664 290.622L296.017 291.47L296.36 292.319L296.692 293.168L297.015 294.019L297.328 294.869L297.632 295.719L297.927 296.569L298.214 297.418L298.493 298.267L298.765 299.116L299.029 299.963L299.286 300.81L299.536 301.657L299.779 302.503L300.016 303.348L300.246 304.192L300.47 305.036L300.688 305.879L300.9 306.722L301.107 307.565L301.307 308.407L301.501 309.249L301.69 310.092L301.873 310.934L302.05 311.777L302.22 312.62L302.385 313.463L302.543 314.307L302.694 315.152L302.839 315.998L302.977 316.844L303.108 317.691L303.231 318.54L303.346 319.389L303.454 320.24L303.552 321.092L303.642 321.945L303.723 322.799L303.795 323.654L303.856 324.51L303.907 325.368L303.947 326.226L303.977 327.085Z" fill="url(#paint0_linear_412_34)"/>
</g>
<defs>
<filter id="filter0_f_412_34" x="-82" y="0" width="649" height="636" filterUnits="userSpaceOnUse" color-interpolation-filters="sRGB">
<feFlood flood-opacity="0" result="BackgroundImageFix"/>
<feBlend mode="normal" in="SourceGraphic" in2="BackgroundImageFix" result="shape"/>
<feGaussianBlur stdDeviation="131.5" result="effect1_foregroundBlur_412_34"/>
</filter>
<linearGradient id="paint0_linear_412_34" x1="280.895" y1="311.807" x2="231.455" y2="412.997" gradientUnits="userSpaceOnUse">
<stop stop-color="#403BC2"/>
<stop offset="1" stop-color="#5996A3"/>
</linearGradient>
</defs>
</svg>
