<svg preserveAspectRatio="none" width="261" height="483" viewBox="0 0 261 483" fill="none" xmlns="http://www.w3.org/2000/svg">
<g filter="url(#filter0_f_305_96)">
<path fill-rule="evenodd" clip-rule="evenodd" d="M449.544 259.897L449.53 263.792L449.43 267.685L449.245 271.575L448.974 275.459L448.617 279.336L448.175 283.203L447.648 287.059L447.035 290.901L446.339 294.727L445.558 298.536L444.695 302.325L443.749 306.092L442.723 309.835L441.617 313.554L440.432 317.245L439.17 320.907L437.832 324.539L436.419 328.139L434.934 331.706L433.378 335.237L431.753 338.733L430.06 342.191L428.302 345.61L426.48 348.99L424.596 352.329L422.653 355.627L420.652 358.883L418.595 362.095L416.484 365.264L414.321 368.389L412.109 371.469L409.849 374.503L407.543 377.493L405.193 380.436L402.801 383.334L400.368 386.186L397.898 388.991L395.39 391.75L392.847 394.463L390.271 397.129L387.662 399.75L385.023 402.324L382.355 404.852L379.658 407.333L376.935 409.769L374.186 412.158L371.413 414.502L368.617 416.8L365.798 419.053L362.958 421.26L360.098 423.421L357.218 425.537L354.32 427.609L351.404 429.635L348.472 431.617L345.523 433.554L342.559 435.446L339.581 437.294L336.588 439.098L333.582 440.857L330.564 442.572L327.533 444.243L324.491 445.87L321.437 447.452L318.373 448.991L315.298 450.485L312.214 451.934L309.121 453.339L306.019 454.699L302.908 456.015L299.79 457.285L296.663 458.51L293.53 459.689L290.39 460.823L287.242 461.909L284.089 462.949L280.93 463.94L277.765 464.884L274.595 465.778L271.42 466.622L268.241 467.417L265.058 468.159L261.871 468.85L258.682 469.488L255.49 470.072L252.297 470.601L249.102 471.075L245.907 471.493L242.713 471.854L239.52 472.156L236.329 472.4L233.141 472.585L229.957 472.709L226.779 472.773L223.606 472.776L220.441 472.717L217.285 472.595L214.138 472.411L211.003 472.165L207.88 471.855L204.77 471.482L201.676 471.047L198.598 470.548L195.538 469.986L192.497 469.362L189.477 468.677L186.479 467.929L183.504 467.121L180.554 466.254L177.63 465.327L174.734 464.342L171.867 463.3L169.029 462.203L166.223 461.051L163.449 459.847L160.708 458.591L158.002 457.286L155.331 455.933L152.697 454.534L150.099 453.091L147.539 451.606L145.017 450.081L142.534 448.519L140.09 446.921L137.686 445.289L135.321 443.626L132.996 441.934L130.71 440.215L128.464 438.472L126.258 436.706L124.091 434.92L121.963 433.116L119.873 431.296L117.821 429.463L115.806 427.617L113.828 425.762L111.885 423.899L109.977 422.03L108.103 420.156L106.262 418.28L104.453 416.404L102.674 414.527L100.925 412.653L99.2045 410.782L97.5112 408.915L95.8438 407.053L94.2013 405.199L92.5823 403.351L90.9856 401.512L89.41 399.681L87.8541 397.86L86.3167 396.049L84.7966 394.248L83.2926 392.457L81.8036 390.677L80.3285 388.908L78.8661 387.149L77.4154 385.401L75.9755 383.663L74.5455 381.934L73.1246 380.215L71.7119 378.504L70.3068 376.802L68.9087 375.107L67.5171 373.419L66.1316 371.737L64.7517 370.06L63.3773 368.387L62.0081 366.717L60.6441 365.049L59.2854 363.382L57.9319 361.715L56.5839 360.048L55.2417 358.378L53.9056 356.705L52.576 355.028L51.2534 353.346L49.9385 351.657L48.6318 349.962L47.3341 348.258L46.046 346.545L44.7685 344.821L43.5023 343.087L42.2482 341.342L41.0073 339.584L39.7803 337.813L38.5682 336.028L37.3719 334.23L36.1923 332.417L35.0304 330.588L33.8869 328.745L32.7626 326.886L31.6585 325.011L30.5752 323.121L29.5135 321.215L28.4741 319.292L27.4578 317.354L26.4653 315.4L25.4973 313.43L24.5546 311.444L23.6377 309.443L22.7473 307.426L21.8841 305.394L21.0486 303.347L20.2414 301.286L19.463 299.21L18.7139 297.121L17.9946 295.017L17.3054 292.901L16.6468 290.772L16.019 288.631L15.4224 286.478L14.8571 284.314L14.3234 282.139L13.8215 279.953L13.3513 277.758L12.913 275.553L12.5066 273.339L12.132 271.117L11.7892 268.887L11.478 266.649L11.1981 264.405L10.9492 262.154L10.7307 259.897L10.5421 257.634L10.3828 255.366L10.2522 253.093L10.1494 250.815L10.0737 248.533L10.0242 246.246L10 243.955L10.0003 241.659L10.0241 239.359L10.0704 237.055L10.1385 234.747L10.2272 232.434L10.3358 230.115L10.4633 227.792L10.6089 225.463L10.7718 223.128L10.9512 220.787L11.1464 218.439L11.3568 216.083L11.5818 213.72L11.8209 211.348L12.0737 208.967L12.3398 206.575L12.619 204.174L12.911 201.761L13.216 199.337L13.5338 196.9L13.8646 194.451L14.2086 191.987L14.5661 189.51L14.9376 187.017L15.3235 184.51L15.7245 181.987L16.1413 179.448L16.5747 176.892L17.0255 174.32L17.4948 171.73L17.9836 169.124L18.493 166.5L19.0242 163.86L19.5785 161.202L20.1572 158.528L20.7617 155.837L21.3934 153.131L22.0539 150.408L22.7445 147.671L23.4669 144.92L24.2226 142.155L25.0131 139.378L25.84 136.589L26.7048 133.789L27.6092 130.981L28.5546 128.164L29.5425 125.342L30.5744 122.514L31.6517 119.682L32.7758 116.849L33.9479 114.016L35.1694 111.184L36.4413 108.356L37.7649 105.534L39.1412 102.719L40.571 99.913L42.0554 97.119L43.5949 94.3386L45.1904 91.5739L46.8423 88.8271L48.5513 86.1004L50.3175 83.3959L52.1414 80.7156L54.023 78.0619L55.9625 75.4368L57.9598 72.8424L60.0148 70.2808L62.1272 67.754L64.2967 65.264L66.5228 62.8128L68.8051 60.4023L71.1429 58.0342L73.5355 55.7105L75.9821 53.4327L78.4818 51.2025L81.0336 49.0215L83.6366 46.8911L86.2897 44.8128L88.9916 42.7878L91.7412 40.8173L94.5373 38.9026L97.3785 37.0447L100.263 35.2445L103.191 33.5029L106.159 31.8208L109.167 30.1988L112.213 28.6377L115.295 27.1378L118.413 25.6999L121.564 24.3242L124.747 23.0111L127.961 21.7609L131.204 20.5738L134.475 19.4501L137.771 18.3897L141.093 17.3927L144.438 16.4592L147.804 15.5892L151.191 14.7826L154.598 14.0393L158.021 13.3592L161.461 12.7422L164.917 12.1881L168.385 11.6968L171.867 11.268L175.359 10.9017L178.861 10.5976L182.372 10.3555L185.891 10.1754L189.415 10.0569L192.945 10L196.479 10.0045L200.015 10.0702L203.553 10.197L207.092 10.3846L210.63 10.6328L214.166 10.9414L217.699 11.31L221.228 11.7385L224.753 12.2266L228.271 12.7738L231.782 13.3798L235.285 14.0444L238.779 14.767L242.263 15.5473L245.735 16.385L249.196 17.2794L252.643 18.2303L256.077 19.237L259.496 20.2992L262.9 21.4162L266.286 22.5876L269.656 23.8128L273.007 25.0913L276.34 26.4224L279.653 27.8056L282.945 29.2402L286.216 30.7257L289.466 32.2613L292.693 33.8463L295.898 35.4801L299.078 37.1616L302.235 38.8901L305.368 40.6647L308.476 42.4844L311.559 44.3484L314.617 46.2556L317.65 48.2052L320.657 50.1961L323.639 52.2274L326.596 54.2982L329.527 56.4075L332.432 58.5546L335.312 60.7385L338.167 62.9583L340.996 65.2134L343.801 67.503L346.58 69.8264L349.335 72.1829L352.065 74.5719L354.771 76.993L357.452 79.4456L360.109 81.9294L362.742 84.4439L365.351 86.9888L367.936 89.564L370.497 92.1691L373.033 94.8041L375.545 97.4689L378.033 100.163L380.496 102.888L382.934 105.642L385.346 108.425L387.732 111.239L390.093 114.083L392.426 116.957L394.731 119.862L397.008 122.797L399.256 125.763L401.474 128.76L403.661 131.789L405.816 134.848L407.938 137.94L410.026 141.063L412.078 144.217L414.094 147.404L416.071 150.623L418.01 153.873L419.907 157.155L421.762 160.47L423.574 163.816L425.34 167.193L427.058 170.602L428.728 174.042L430.347 177.512L431.914 181.013L433.426 184.543L434.882 188.103L436.28 191.691L437.618 195.307L438.895 198.95L440.108 202.619L441.255 206.312L442.335 210.03L443.346 213.771L444.287 217.533L445.155 221.315L445.949 225.116L446.668 228.935L447.309 232.768L447.873 236.616L448.356 240.477L448.759 244.347L449.08 248.227L449.319 252.113L449.474 256.003L449.544 259.897Z" fill="url(#paint0_linear_305_96)"/>
</g>
<defs>
<filter id="filter0_f_305_96" x="0" y="0" width="459.544" height="482.776" filterUnits="userSpaceOnUse" color-interpolation-filters="sRGB">
<feFlood flood-opacity="0" result="BackgroundImageFix"/>
<feBlend mode="normal" in="SourceGraphic" in2="BackgroundImageFix" result="shape"/>
<feGaussianBlur stdDeviation="5" result="effect1_foregroundBlur_305_96"/>
</filter>
<linearGradient id="paint0_linear_305_96" x1="-645.861" y1="-515.409" x2="-362.115" y2="-869.606" gradientUnits="userSpaceOnUse">
<stop stop-color="#272470"/>
<stop offset="1" stop-color="#0B26E9"/>
</linearGradient>
</defs>
</svg>
