<svg preserveAspectRatio="none" width="295" height="529" viewBox="0 0 295 529" fill="none" xmlns="http://www.w3.org/2000/svg">
<g filter="url(#filter0_f_305_97)">
<path fill-rule="evenodd" clip-rule="evenodd" d="M284.892 306.538L284.974 310.516L285 314.496L284.968 318.477L284.876 322.46L284.721 326.441L284.502 330.42L284.215 334.396L283.858 338.368L283.43 342.332L282.928 346.288L282.35 350.234L281.693 354.168L280.957 358.088L280.138 361.99L279.237 365.874L278.25 369.736L277.178 373.574L276.018 377.386L274.77 381.169L273.433 384.92L272.007 388.637L270.492 392.317L268.887 395.957L267.193 399.556L265.409 403.109L263.538 406.615L261.579 410.071L259.533 413.475L257.403 416.824L255.189 420.117L252.893 423.35L250.517 426.522L248.063 429.632L245.532 432.677L242.929 435.655L240.254 438.565L237.51 441.406L234.7 444.176L231.827 446.874L228.893 449.499L225.901 452.051L222.854 454.528L219.756 456.929L216.609 459.256L213.417 461.507L210.183 463.682L206.911 465.783L203.605 467.81L200.267 469.764L196.903 471.645L193.515 473.455L190.106 475.196L186.682 476.869L183.244 478.476L179.798 480.02L176.345 481.502L172.889 482.924L169.433 484.291L165.98 485.603L162.533 486.864L159.095 488.077L155.668 489.245L152.253 490.37L148.854 491.456L145.471 492.506L142.107 493.522L138.763 494.507L135.44 495.465L132.139 496.398L128.86 497.31L125.604 498.201L122.372 499.076L119.162 499.937L115.976 500.785L112.813 501.623L109.672 502.451L106.552 503.272L103.452 504.087L100.37 504.895L97.3066 505.697L94.2587 506.493L91.2253 507.283L88.2045 508.065L85.1947 508.839L82.1942 509.603L79.2014 510.355L76.2145 511.094L73.2321 511.818L70.2527 512.524L67.2747 513.21L64.2972 513.872L61.3189 514.508L58.3388 515.115L55.3562 515.69L52.3704 516.229L49.3811 516.73L46.3879 517.189L43.3908 517.603L40.39 517.969L37.3857 518.284L34.3785 518.545L31.3691 518.75L28.3584 518.896L25.3474 518.98L22.3372 519L19.3293 518.955L16.325 518.843L13.326 518.663L10.3338 518.413L7.35019 518.093L4.37689 517.703L1.41571 517.243L-1.53162 516.713L-4.46326 516.114L-7.37756 515.447L-10.2729 514.713L-13.1476 513.915L-16.0002 513.053L-18.8294 512.131L-21.6339 511.15L-24.4127 510.113L-27.1647 509.023L-29.8891 507.882L-32.5853 506.693L-35.2527 505.46L-37.8911 504.186L-40.5003 502.873L-43.0803 501.526L-45.6314 500.148L-48.1539 498.742L-50.6484 497.31L-53.1157 495.858L-55.5566 494.388L-57.9722 492.903L-60.3639 491.406L-62.7328 489.9L-65.0806 488.389L-67.4088 486.875L-69.7192 485.36L-72.0137 483.847L-74.2941 482.339L-76.5624 480.836L-78.8207 479.342L-81.0711 477.857L-83.3156 476.384L-85.5563 474.922L-87.7954 473.473L-90.0349 472.038L-92.2768 470.617L-94.5233 469.21L-96.7763 467.818L-99.038 466.441L-101.31 465.078L-103.596 463.73L-105.896 462.396L-108.213 461.076L-110.549 459.769L-112.905 458.474L-115.284 457.191L-117.688 455.918L-120.117 454.655L-122.573 453.399L-125.057 452.149L-127.571 450.903L-130.116 449.66L-132.692 448.416L-135.3 447.171L-137.94 445.922L-140.613 444.665L-143.319 443.4L-146.057 442.122L-148.827 440.83L-151.629 439.52L-154.461 438.19L-157.322 436.837L-160.213 435.458L-163.13 434.05L-166.072 432.61L-169.038 431.136L-172.025 429.625L-175.032 428.074L-178.056 426.481L-181.094 424.842L-184.144 423.156L-187.204 421.42L-190.269 419.632L-193.339 417.791L-196.408 415.893L-199.475 413.938L-202.537 411.923L-205.589 409.848L-208.63 407.71L-211.654 405.51L-214.66 403.245L-217.644 400.915L-220.601 398.519L-223.53 396.056L-226.425 393.526L-229.284 390.93L-232.103 388.266L-234.879 385.535L-237.608 382.737L-240.286 379.872L-242.912 376.941L-245.48 373.945L-247.988 370.885L-250.434 367.761L-252.813 364.575L-255.124 361.329L-257.363 358.022L-259.528 354.658L-261.616 351.237L-263.626 347.763L-265.554 344.235L-267.399 340.657L-269.159 337.03L-270.832 333.357L-272.417 329.64L-273.912 325.88L-275.316 322.082L-276.629 318.246L-277.848 314.375L-278.974 310.471L-280.006 306.538L-280.942 302.576L-281.784 298.59L-282.528 294.581L-283.176 290.552L-283.727 286.505L-284.179 282.443L-284.533 278.368L-284.788 274.284L-284.944 270.191L-285 266.094L-284.956 261.995L-284.812 257.896L-284.568 253.8L-284.224 249.709L-283.781 245.626L-283.238 241.554L-282.595 237.496L-281.855 233.453L-281.016 229.428L-280.081 225.424L-279.049 221.443L-277.922 217.487L-276.701 213.559L-275.388 209.66L-273.983 205.794L-272.488 201.962L-270.905 198.166L-269.236 194.407L-267.482 190.689L-265.646 187.011L-263.729 183.377L-261.733 179.786L-259.662 176.242L-257.516 172.744L-255.298 169.294L-253.011 165.893L-250.658 162.541L-248.239 159.24L-245.759 155.99L-243.22 152.792L-240.623 149.646L-237.973 146.551L-235.27 143.509L-232.518 140.519L-229.719 137.582L-226.876 134.696L-223.99 131.862L-221.065 129.08L-218.101 126.348L-215.103 123.667L-212.071 121.036L-209.008 118.454L-205.916 115.92L-202.796 113.434L-199.651 110.994L-196.481 108.601L-193.29 106.252L-190.078 103.947L-186.847 101.685L-183.599 99.4648L-180.334 97.2851L-177.054 95.145L-173.759 93.0434L-170.452 90.9789L-167.133 88.9506L-163.802 86.9572L-160.461 84.9976L-157.111 83.0705L-153.751 81.1749L-150.383 79.3096L-147.006 77.4734L-143.622 75.6652L-140.23 73.8839L-136.831 72.1285L-133.425 70.3978L-130.011 68.6908L-126.591 67.0065L-123.163 65.3439L-119.728 63.7021L-116.285 62.08L-112.835 60.4769L-109.376 58.8918L-105.91 57.3239L-102.434 55.7725L-98.9486 54.2368L-95.4536 52.7163L-91.9479 51.2104L-88.4312 49.7186L-84.9025 48.2405L-81.3613 46.7757L-77.8067 45.324L-74.2379 43.8854L-70.6541 42.4599L-67.0545 41.0474L-63.4381 39.6483L-59.804 38.2629L-56.1513 36.8916L-52.4792 35.5351L-48.7868 34.1942L-45.073 32.8697L-41.3372 31.5625L-37.5784 30.274L-33.7959 29.0054L-29.9889 27.7582L-26.1567 26.5339L-22.2988 25.3342L-18.4145 24.1612L-14.5033 23.0166L-10.5649 21.9027L-6.59909 20.8217L-2.60559 19.7759L1.41571 18.7677L5.46469 17.7997L9.54123 16.8744L13.6451 15.9946L17.7757 15.163L21.9326 14.3822L26.1151 13.6554L30.3223 12.9852L34.5533 12.3748L38.8068 11.8271L43.0816 11.3452L47.3763 10.9319L51.6891 10.5904L56.0183 10.3236L60.3622 10.1343L64.7184 10.0255L69.0849 10L73.4593 10.0604L77.839 10.2094L82.2216 10.4493L86.6042 10.7826L90.9839 11.2115L95.358 11.7379L99.7232 12.3638L104.077 13.0907L108.415 13.9203L112.735 14.8537L117.033 15.892L121.307 17.0361L125.553 18.2865L129.767 19.6436L133.946 21.1075L138.088 22.6781L142.188 24.3551L146.245 26.1378L150.254 28.0254L154.213 30.0167L158.119 32.1104L161.969 34.305L165.762 36.5988L169.493 38.99L173.162 41.4765L176.765 44.0561L180.301 46.7265L183.768 49.4851L187.163 52.3293L190.486 55.2563L193.736 58.2631L196.91 61.3466L200.008 64.5037L203.029 67.7311L205.973 71.0255L208.84 74.3833L211.629 77.8012L214.34 81.2755L216.973 84.8027L219.53 88.3792L222.011 92.0015L224.417 95.6659L226.749 99.3691L229.009 103.107L231.197 106.878L233.316 110.676L235.367 114.5L237.353 118.346L239.275 122.212L241.135 126.094L242.936 129.99L244.681 133.897L246.371 137.814L248.008 141.737L249.595 145.665L251.135 149.597L252.629 153.531L254.079 157.466L255.488 161.4L256.856 165.332L258.187 169.263L259.481 173.191L260.739 177.117L261.962 181.04L263.153 184.959L264.311 188.876L265.439 192.789L266.536 196.699L267.604 200.607L268.642 204.511L269.653 208.414L270.636 212.314L271.592 216.213L272.52 220.112L273.421 224.009L274.295 227.907L275.142 231.805L275.961 235.704L276.752 239.604L277.514 243.507L278.247 247.413L278.949 251.322L279.621 255.234L280.26 259.151L280.865 263.072L281.436 266.997L281.971 270.928L282.468 274.864L282.926 278.806L283.343 282.753L283.718 286.705L284.048 290.662L284.333 294.624L284.569 298.591L284.757 302.563L284.892 306.538Z" fill="url(#paint0_linear_305_97)"/>
</g>
<defs>
<filter id="filter0_f_305_97" x="-295" y="0" width="590" height="529" filterUnits="userSpaceOnUse" color-interpolation-filters="sRGB">
<feFlood flood-opacity="0" result="BackgroundImageFix"/>
<feBlend mode="normal" in="SourceGraphic" in2="BackgroundImageFix" result="shape"/>
<feGaussianBlur stdDeviation="5" result="effect1_foregroundBlur_305_97"/>
</filter>
<linearGradient id="paint0_linear_305_97" x1="177.927" y1="235.842" x2="-50.6342" y2="704.344" gradientUnits="userSpaceOnUse">
<stop stop-color="#403BC2"/>
<stop offset="1" stop-color="#121038"/>
</linearGradient>
</defs>
</svg>
