<svg preserveAspectRatio="none" width="23" height="21" viewBox="0 0 23 21" fill="none" xmlns="http://www.w3.org/2000/svg">
<path d="M23 0.84C23 0.617218 22.9135 0.403561 22.7594 0.24603C22.6054 0.0884997 22.3964 0 22.1785 0C17.6523 0 13.008 5.21955 10.4287 8.67615C9.50748 8.38766 8.53297 8.3241 7.5834 8.49059C6.63384 8.65708 5.73569 9.04897 4.9611 9.63478C4.1865 10.2206 3.55706 10.984 3.12332 11.8637C2.68959 12.7434 2.46365 13.7148 2.46365 14.7C2.46365 17.9424 0.457247 19.3966 0.361753 19.4638C0.216036 19.5645 0.105736 19.7102 0.0470714 19.8797C-0.0115932 20.0492 -0.015526 20.2335 0.035851 20.4054C0.0872281 20.5774 0.191204 20.728 0.332489 20.835C0.473775 20.942 0.644913 20.9998 0.820741 21H8.62455C9.58798 21 10.538 20.769 11.3982 20.3254C12.2585 19.8819 13.0051 19.2382 13.5779 18.4462C14.1508 17.6541 14.5341 16.7357 14.6969 15.7647C14.8597 14.7937 14.7975 13.7971 14.5154 12.8551C17.8967 10.2175 23 5.4684 23 0.84ZM11.9535 9.40275C12.3054 8.93655 12.6507 8.4973 12.9896 8.085C13.8189 8.65799 14.5332 9.38834 15.0935 10.2364C14.6896 10.5822 14.2601 10.9354 13.8048 11.2959C13.3262 10.5376 12.695 9.89224 11.9535 9.40275ZM16.338 9.12135C15.7178 8.22654 14.9541 7.44551 14.079 6.81135C17.3422 3.1857 19.8035 2.08635 21.2565 1.7808C20.9638 3.2676 19.8836 5.78445 16.338 9.12135Z" fill="#F8F8F8"/>
</svg>
